<svg width="846" height="304" viewBox="0 0 846 304" fill="none" xmlns="http://www.w3.org/2000/svg">
<path d="M284.528 96V28.224H299.6V96H284.528ZM342.125 96V69.408C342.125 66.976 341.357 65.024 339.821 63.552C338.349 62.016 336.461 61.248 334.157 61.248C332.557 61.248 331.149 61.6 329.933 62.304C328.717 62.944 327.757 63.904 327.053 65.184C326.349 66.4 325.997 67.808 325.997 69.408L320.333 66.624C320.333 62.976 321.133 59.776 322.733 57.024C324.333 54.272 326.541 52.16 329.357 50.688C332.237 49.152 335.469 48.384 339.053 48.384C342.509 48.384 345.549 49.216 348.173 50.88C350.861 52.48 352.973 54.624 354.509 57.312C356.045 60 356.813 62.944 356.813 66.144V96H342.125ZM311.309 96V49.344H325.997V96H311.309ZM397.063 96V69.408C397.063 66.976 396.295 65.024 394.759 63.552C393.287 62.016 391.399 61.248 389.095 61.248C387.495 61.248 386.087 61.6 384.871 62.304C383.655 62.944 382.695 63.904 381.991 65.184C381.287 66.4 380.935 67.808 380.935 69.408L375.271 66.624C375.271 62.976 376.071 59.776 377.671 57.024C379.271 54.272 381.479 52.16 384.295 50.688C387.175 49.152 390.407 48.384 393.991 48.384C397.447 48.384 400.487 49.216 403.111 50.88C405.799 52.48 407.911 54.624 409.447 57.312C410.983 60 411.75 62.944 411.75 66.144V96H397.063ZM366.247 96V49.344H380.935V96H366.247ZM438.176 97.152C435.424 97.152 432.704 96.8 430.016 96.096C427.392 95.392 424.928 94.4 422.624 93.12C420.384 91.776 418.464 90.24 416.864 88.512L425.216 80.064C426.752 81.728 428.576 83.04 430.688 84C432.8 84.896 435.104 85.344 437.6 85.344C439.328 85.344 440.64 85.088 441.536 84.576C442.496 84.064 442.976 83.36 442.976 82.464C442.976 81.312 442.4 80.448 441.248 79.872C440.16 79.232 438.752 78.688 437.024 78.24C435.296 77.728 433.472 77.184 431.552 76.608C429.632 76.032 427.808 75.232 426.08 74.208C424.352 73.184 422.944 71.776 421.856 69.984C420.768 68.128 420.224 65.792 420.224 62.976C420.224 59.968 420.992 57.376 422.528 55.2C424.064 52.96 426.24 51.2 429.056 49.92C431.872 48.64 435.168 48 438.944 48C442.912 48 446.56 48.704 449.888 50.112C453.28 51.456 456.032 53.472 458.144 56.16L449.792 64.608C448.32 62.88 446.656 61.664 444.8 60.96C443.008 60.256 441.248 59.904 439.52 59.904C437.856 59.904 436.608 60.16 435.776 60.672C434.944 61.12 434.528 61.792 434.528 62.688C434.528 63.648 435.072 64.416 436.16 64.992C437.248 65.568 438.656 66.08 440.384 66.528C442.112 66.976 443.936 67.52 445.856 68.16C447.776 68.8 449.6 69.664 451.328 70.752C453.056 71.84 454.464 73.312 455.552 75.168C456.64 76.96 457.184 79.328 457.184 82.272C457.184 86.816 455.456 90.432 452 93.12C448.608 95.808 444 97.152 438.176 97.152ZM492.033 96.96C488.897 96.96 486.017 96.352 483.393 95.136C480.769 93.92 478.625 92.256 476.961 90.144C475.297 87.968 474.337 85.504 474.081 82.752V63.072C474.337 60.32 475.297 57.824 476.961 55.584C478.625 53.344 480.769 51.584 483.393 50.304C486.017 49.024 488.897 48.384 492.033 48.384C496.449 48.384 500.353 49.44 503.745 51.552C507.201 53.664 509.889 56.544 511.809 60.192C513.793 63.84 514.785 68 514.785 72.672C514.785 77.344 513.793 81.504 511.809 85.152C509.889 88.8 507.201 91.68 503.745 93.792C500.353 95.904 496.449 96.96 492.033 96.96ZM489.345 83.712C491.457 83.712 493.281 83.232 494.817 82.272C496.417 81.312 497.665 80 498.561 78.336C499.457 76.672 499.905 74.784 499.905 72.672C499.905 70.496 499.457 68.576 498.561 66.912C497.665 65.248 496.417 63.968 494.817 63.072C493.281 62.112 491.489 61.632 489.441 61.632C487.393 61.632 485.569 62.112 483.969 63.072C482.433 63.968 481.217 65.248 480.321 66.912C479.425 68.576 478.977 70.496 478.977 72.672C478.977 74.784 479.393 76.672 480.225 78.336C481.121 80 482.369 81.312 483.969 82.272C485.569 83.232 487.361 83.712 489.345 83.712ZM465.153 115.68V49.344H479.841V61.344L477.441 72.672L479.649 84V115.68H465.153ZM522.247 96V49.344H536.935V96H522.247ZM529.639 42.912C527.335 42.912 525.415 42.144 523.879 40.608C522.407 39.008 521.671 37.088 521.671 34.848C521.671 32.544 522.407 30.624 523.879 29.088C525.415 27.552 527.335 26.784 529.639 26.784C531.943 26.784 533.831 27.552 535.303 29.088C536.775 30.624 537.511 32.544 537.511 34.848C537.511 37.088 536.775 39.008 535.303 40.608C533.831 42.144 531.943 42.912 529.639 42.912ZM547.278 96V49.344H561.966V96H547.278ZM561.966 70.368L555.822 65.568C557.038 60.128 559.086 55.904 561.966 52.896C564.846 49.888 568.846 48.384 573.966 48.384C576.206 48.384 578.158 48.736 579.822 49.44C581.55 50.08 583.054 51.104 584.334 52.512L575.598 63.552C574.958 62.848 574.158 62.304 573.198 61.92C572.238 61.536 571.15 61.344 569.934 61.344C567.502 61.344 565.55 62.112 564.078 63.648C562.67 65.12 561.966 67.36 561.966 70.368ZM609.398 97.056C604.598 97.056 600.246 96 596.342 93.888C592.502 91.712 589.462 88.768 587.222 85.056C584.982 81.344 583.862 77.184 583.862 72.576C583.862 67.968 584.982 63.84 587.222 60.192C589.462 56.544 592.502 53.664 596.342 51.552C600.182 49.376 604.534 48.288 609.398 48.288C614.262 48.288 618.614 49.344 622.454 51.456C626.294 53.568 629.334 56.48 631.574 60.192C633.814 63.84 634.934 67.968 634.934 72.576C634.934 77.184 633.814 81.344 631.574 85.056C629.334 88.768 626.294 91.712 622.454 93.888C618.614 96 614.262 97.056 609.398 97.056ZM609.398 83.712C611.51 83.712 613.366 83.264 614.966 82.368C616.566 81.408 617.782 80.096 618.614 78.432C619.51 76.704 619.958 74.752 619.958 72.576C619.958 70.4 619.51 68.512 618.614 66.912C617.718 65.248 616.47 63.968 614.87 63.072C613.334 62.112 611.51 61.632 609.398 61.632C607.35 61.632 605.526 62.112 603.926 63.072C602.326 63.968 601.078 65.248 600.182 66.912C599.286 68.576 598.838 70.496 598.838 72.672C598.838 74.784 599.286 76.704 600.182 78.432C601.078 80.096 602.326 81.408 603.926 82.368C605.526 83.264 607.35 83.712 609.398 83.712ZM655.622 96L635.846 49.344H651.686L665.126 88.224H658.214L671.654 49.344H687.206L667.43 95.904L655.622 96ZM710.672 96.96C706.384 96.96 702.544 95.904 699.152 93.792C695.824 91.68 693.168 88.8 691.184 85.152C689.264 81.504 688.304 77.344 688.304 72.672C688.304 68 689.264 63.84 691.184 60.192C693.168 56.544 695.824 53.664 699.152 51.552C702.544 49.44 706.384 48.384 710.672 48.384C713.808 48.384 716.624 48.992 719.12 50.208C721.68 51.424 723.76 53.12 725.36 55.296C726.96 57.408 727.856 59.84 728.048 62.592V82.752C727.856 85.504 726.96 87.968 725.36 90.144C723.824 92.256 721.776 93.92 719.216 95.136C716.656 96.352 713.808 96.96 710.672 96.96ZM713.648 83.712C716.784 83.712 719.312 82.688 721.232 80.64C723.152 78.528 724.112 75.872 724.112 72.672C724.112 70.496 723.664 68.576 722.768 66.912C721.936 65.248 720.72 63.968 719.12 63.072C717.584 62.112 715.792 61.632 713.744 61.632C711.696 61.632 709.872 62.112 708.272 63.072C706.736 63.968 705.488 65.248 704.528 66.912C703.632 68.576 703.184 70.496 703.184 72.672C703.184 74.784 703.632 76.672 704.528 78.336C705.424 80 706.672 81.312 708.272 82.272C709.872 83.232 711.664 83.712 713.648 83.712ZM723.536 96V83.424L725.744 72.096L723.536 60.768V49.344H737.936V96H723.536ZM754.902 96V30.048H769.59V96H754.902ZM744.342 61.824V49.344H780.15V61.824H744.342ZM808.724 97.056C803.668 97.056 799.156 96.032 795.188 93.984C791.284 91.872 788.212 88.96 785.972 85.248C783.732 81.536 782.612 77.344 782.612 72.672C782.612 68 783.7 63.84 785.876 60.192C788.116 56.48 791.124 53.568 794.9 51.456C798.676 49.344 802.932 48.288 807.668 48.288C812.276 48.288 816.34 49.28 819.86 51.264C823.38 53.248 826.132 56 828.116 59.52C830.164 63.04 831.188 67.072 831.188 71.616C831.188 72.448 831.124 73.344 830.996 74.304C830.932 75.2 830.772 76.256 830.516 77.472L790.292 77.568V67.488L824.276 67.392L817.94 71.616C817.876 68.928 817.46 66.72 816.692 64.992C815.924 63.2 814.772 61.856 813.236 60.96C811.764 60 809.94 59.52 807.764 59.52C805.46 59.52 803.444 60.064 801.716 61.152C800.052 62.176 798.74 63.648 797.78 65.568C796.884 67.488 796.436 69.824 796.436 72.576C796.436 75.328 796.916 77.696 797.876 79.68C798.9 81.6 800.308 83.104 802.1 84.192C803.956 85.216 806.132 85.728 808.628 85.728C810.932 85.728 813.012 85.344 814.868 84.576C816.724 83.744 818.356 82.528 819.764 80.928L827.828 88.992C825.524 91.68 822.74 93.696 819.476 95.04C816.212 96.384 812.628 97.056 808.724 97.056ZM302.192 217V151.72H313.232V217H302.192ZM280.304 159.88V149.8H335.12V159.88H280.304ZM352.795 217.96C348.187 217.96 344.027 216.936 340.315 214.888C336.667 212.776 333.755 209.896 331.579 206.248C329.467 202.6 328.411 198.504 328.411 193.96C328.411 189.416 329.467 185.352 331.579 181.768C333.691 178.12 336.539 175.24 340.123 173.128C343.771 171.016 347.803 169.96 352.219 169.96C356.507 169.96 360.283 170.952 363.547 172.936C366.875 174.92 369.467 177.64 371.323 181.096C373.243 184.552 374.203 188.488 374.203 192.904C374.203 193.672 374.139 194.472 374.011 195.304C373.947 196.072 373.819 196.936 373.627 197.896H335.803V189.256H368.155L364.219 192.712C364.091 189.896 363.547 187.528 362.587 185.608C361.627 183.688 360.251 182.216 358.459 181.192C356.731 180.168 354.587 179.656 352.027 179.656C349.339 179.656 347.003 180.232 345.019 181.384C343.035 182.536 341.499 184.168 340.411 186.28C339.323 188.328 338.779 190.792 338.779 193.672C338.779 196.552 339.355 199.08 340.507 201.256C341.659 203.432 343.291 205.128 345.403 206.344C347.515 207.496 349.947 208.072 352.699 208.072C355.067 208.072 357.243 207.656 359.227 206.824C361.275 205.992 363.003 204.776 364.411 203.176L371.131 209.992C368.891 212.616 366.171 214.6 362.971 215.944C359.771 217.288 356.379 217.96 352.795 217.96ZM403.885 217.96C399.341 217.96 395.213 216.904 391.501 214.792C387.853 212.68 384.973 209.8 382.861 206.152C380.749 202.504 379.693 198.44 379.693 193.96C379.693 189.416 380.749 185.352 382.861 181.768C384.973 178.12 387.853 175.24 391.501 173.128C395.213 171.016 399.341 169.96 403.885 169.96C407.469 169.96 410.797 170.664 413.869 172.072C417.005 173.416 419.661 175.368 421.837 177.928L414.925 184.936C413.581 183.336 411.949 182.152 410.029 181.384C408.173 180.552 406.125 180.136 403.885 180.136C401.261 180.136 398.925 180.744 396.877 181.96C394.893 183.112 393.325 184.712 392.173 186.76C391.085 188.808 390.541 191.208 390.541 193.96C390.541 196.648 391.085 199.048 392.173 201.16C393.325 203.208 394.893 204.84 396.877 206.056C398.925 207.208 401.261 207.784 403.885 207.784C406.125 207.784 408.173 207.4 410.029 206.632C411.949 205.8 413.581 204.584 414.925 202.984L421.837 209.992C419.661 212.552 417.005 214.536 413.869 215.944C410.797 217.288 407.469 217.96 403.885 217.96ZM461.034 217V190.408C461.034 187.336 460.042 184.808 458.058 182.824C456.138 180.84 453.642 179.848 450.57 179.848C448.522 179.848 446.698 180.296 445.098 181.192C443.498 182.088 442.25 183.336 441.354 184.936C440.458 186.536 440.01 188.36 440.01 190.408L435.882 188.104C435.882 184.584 436.65 181.48 438.186 178.792C439.722 176.04 441.834 173.896 444.522 172.36C447.274 170.76 450.346 169.96 453.738 169.96C457.194 169.96 460.266 170.728 462.954 172.264C465.642 173.8 467.754 175.944 469.29 178.696C470.826 181.384 471.594 184.52 471.594 188.104V217H461.034ZM429.45 217V147.88H440.01V217H429.45ZM490.389 217.96C488.341 217.96 486.645 217.288 485.301 215.944C484.021 214.536 483.381 212.84 483.381 210.856C483.381 208.808 484.021 207.112 485.301 205.768C486.645 204.424 488.341 203.752 490.389 203.752C492.437 203.752 494.101 204.424 495.381 205.768C496.725 207.112 497.397 208.808 497.397 210.856C497.397 212.84 496.725 214.536 495.381 215.944C494.101 217.288 492.437 217.96 490.389 217.96Z" fill="white"/>
<path d="M239.866 157.431C227.863 157.431 216.34 157.431 204.816 157.431C186.013 157.33 169.691 145.445 164.654 127.15C155.951 95.6836 147.79 64.0656 139.403 32.5234C139.189 31.7411 138.886 30.9967 138.559 30L83.7369 30C87.6537 44.8879 91.5201 59.5488 95.5502 74.8405L62.8056 74.8405C65.3244 84.934 66.9994 94.6111 70.8909 103.519C76.4827 116.3 87.2632 121.889 100.689 121.384C106.885 121.144 109.051 123.327 110.184 128.954C113.963 147.261 120.612 164.282 133.156 178.526C152.803 200.875 177.47 212.272 207.159 212.718C222.662 212.932 238.178 212.718 254.651 212.718L239.866 157.431Z" fill="white"/>
<path d="M236.948 145.924C231.759 126.51 226.635 107.354 221.544 88.3261C216.318 68.7967 211.127 49.4016 205.935 30L150.961 30C155.242 46.3176 159.422 62.3579 163.666 78.3983C167.342 92.3218 171.107 106.245 174.809 120.169C179.342 137.205 190.423 145.886 207.874 145.974C217.28 145.962 226.686 145.924 236.948 145.924Z" fill="white"/>
<rect y="95.127" width="53.3931" height="117.813" fill="white"/>
<rect x="0.126831" y="34.0624" width="53.3931" height="51.0716" fill="#037EFD"/>
<path d="M224.952 295V270.016H228.336V295H224.952ZM245.753 295V285.028C245.753 283.732 245.345 282.664 244.529 281.824C243.713 280.984 242.657 280.564 241.361 280.564C240.497 280.564 239.729 280.756 239.057 281.14C238.385 281.524 237.857 282.052 237.473 282.724C237.089 283.396 236.897 284.164 236.897 285.028L235.565 284.272C235.565 282.976 235.853 281.824 236.429 280.816C237.005 279.808 237.809 279.016 238.841 278.44C239.873 277.84 241.037 277.54 242.333 277.54C243.629 277.54 244.769 277.864 245.753 278.512C246.761 279.16 247.553 280.012 248.129 281.068C248.705 282.1 248.993 283.204 248.993 284.38V295H245.753ZM233.657 295V277.9H236.897V295H233.657ZM258.816 295.36C257.856 295.36 256.944 295.24 256.08 295C255.24 294.736 254.46 294.376 253.74 293.92C253.02 293.44 252.396 292.876 251.868 292.228L253.956 290.14C254.58 290.908 255.3 291.484 256.116 291.868C256.932 292.228 257.844 292.408 258.852 292.408C259.86 292.408 260.64 292.24 261.192 291.904C261.744 291.544 262.02 291.052 262.02 290.428C262.02 289.804 261.792 289.324 261.336 288.988C260.904 288.628 260.34 288.34 259.644 288.124C258.948 287.884 258.204 287.656 257.412 287.44C256.644 287.2 255.912 286.9 255.216 286.54C254.52 286.18 253.944 285.688 253.488 285.064C253.056 284.44 252.84 283.612 252.84 282.58C252.84 281.548 253.092 280.66 253.596 279.916C254.1 279.148 254.796 278.56 255.684 278.152C256.596 277.744 257.688 277.54 258.96 277.54C260.304 277.54 261.492 277.78 262.524 278.26C263.58 278.716 264.444 279.412 265.116 280.348L263.028 282.436C262.548 281.812 261.948 281.332 261.228 280.996C260.532 280.66 259.74 280.492 258.852 280.492C257.916 280.492 257.196 280.66 256.692 280.996C256.212 281.308 255.972 281.752 255.972 282.328C255.972 282.904 256.188 283.348 256.62 283.66C257.052 283.972 257.616 284.236 258.312 284.452C259.032 284.668 259.776 284.896 260.544 285.136C261.312 285.352 262.044 285.652 262.74 286.036C263.436 286.42 264 286.936 264.432 287.584C264.888 288.232 265.116 289.084 265.116 290.14C265.116 291.748 264.54 293.02 263.388 293.956C262.26 294.892 260.736 295.36 258.816 295.36ZM277.743 295.36C276.447 295.36 275.271 295.096 274.215 294.568C273.183 294.016 272.355 293.26 271.731 292.3C271.107 291.34 270.759 290.248 270.687 289.024V283.876C270.759 282.628 271.107 281.536 271.731 280.6C272.379 279.64 273.219 278.896 274.251 278.368C275.307 277.816 276.471 277.54 277.743 277.54C279.303 277.54 280.707 277.936 281.955 278.728C283.227 279.52 284.223 280.588 284.943 281.932C285.663 283.276 286.023 284.788 286.023 286.468C286.023 288.148 285.663 289.66 284.943 291.004C284.223 292.348 283.227 293.416 281.955 294.208C280.707 294.976 279.303 295.36 277.743 295.36ZM277.203 292.3C278.283 292.3 279.231 292.048 280.047 291.544C280.863 291.04 281.511 290.356 281.991 289.492C282.471 288.604 282.711 287.584 282.711 286.432C282.711 285.304 282.471 284.296 281.991 283.408C281.511 282.52 280.863 281.836 280.047 281.356C279.231 280.852 278.295 280.6 277.239 280.6C276.159 280.6 275.211 280.852 274.395 281.356C273.579 281.836 272.943 282.52 272.487 283.408C272.031 284.296 271.803 285.316 271.803 286.468C271.803 287.596 272.019 288.604 272.451 289.492C272.907 290.356 273.543 291.04 274.359 291.544C275.199 292.048 276.147 292.3 277.203 292.3ZM268.743 302.164V277.9H271.983V282.4L271.371 286.54L271.983 290.716V302.164H268.743ZM289.732 295V277.9H292.972V295H289.732ZM291.352 274.48C290.752 274.48 290.26 274.288 289.876 273.904C289.492 273.496 289.3 272.992 289.3 272.392C289.3 271.816 289.492 271.336 289.876 270.952C290.26 270.544 290.752 270.34 291.352 270.34C291.952 270.34 292.444 270.544 292.828 270.952C293.212 271.336 293.404 271.816 293.404 272.392C293.404 272.992 293.212 273.496 292.828 273.904C292.444 274.288 291.952 274.48 291.352 274.48ZM297.747 295V277.9H300.987V295H297.747ZM300.987 285.244L299.763 284.704C299.763 282.52 300.267 280.78 301.275 279.484C302.283 278.188 303.735 277.54 305.631 277.54C306.495 277.54 307.275 277.696 307.971 278.008C308.667 278.296 309.315 278.788 309.915 279.484L307.791 281.68C307.431 281.296 307.035 281.02 306.603 280.852C306.171 280.684 305.667 280.6 305.091 280.6C303.891 280.6 302.907 280.984 302.139 281.752C301.371 282.52 300.987 283.684 300.987 285.244ZM319.554 295.36C317.85 295.36 316.314 294.976 314.946 294.208C313.578 293.416 312.498 292.348 311.706 291.004C310.914 289.66 310.518 288.136 310.518 286.432C310.518 284.752 310.902 283.24 311.67 281.896C312.462 280.552 313.518 279.496 314.838 278.728C316.182 277.936 317.682 277.54 319.338 277.54C320.922 277.54 322.314 277.9 323.514 278.62C324.738 279.34 325.686 280.336 326.358 281.608C327.054 282.88 327.402 284.32 327.402 285.928C327.402 286.168 327.39 286.432 327.366 286.72C327.342 286.984 327.294 287.296 327.222 287.656H312.786V284.956H325.494L324.306 286C324.306 284.848 324.102 283.876 323.694 283.084C323.286 282.268 322.71 281.644 321.966 281.212C321.222 280.756 320.322 280.528 319.266 280.528C318.162 280.528 317.19 280.768 316.35 281.248C315.51 281.728 314.862 282.4 314.406 283.264C313.95 284.128 313.722 285.148 313.722 286.324C313.722 287.524 313.962 288.58 314.442 289.492C314.922 290.38 315.606 291.076 316.494 291.58C317.382 292.06 318.402 292.3 319.554 292.3C320.514 292.3 321.39 292.132 322.182 291.796C322.998 291.46 323.694 290.956 324.27 290.284L326.358 292.408C325.542 293.368 324.534 294.1 323.334 294.604C322.158 295.108 320.898 295.36 319.554 295.36ZM333.779 295.36C333.107 295.36 332.543 295.132 332.087 294.676C331.655 294.196 331.439 293.632 331.439 292.984C331.439 292.312 331.655 291.76 332.087 291.328C332.543 290.872 333.107 290.644 333.779 290.644C334.451 290.644 335.003 290.872 335.435 291.328C335.891 291.76 336.119 292.312 336.119 292.984C336.119 293.632 335.891 294.196 335.435 294.676C335.003 295.132 334.451 295.36 333.779 295.36ZM349.44 295V270.016H352.824V295H349.44ZM370.242 295V285.028C370.242 283.732 369.834 282.664 369.018 281.824C368.202 280.984 367.146 280.564 365.85 280.564C364.986 280.564 364.218 280.756 363.546 281.14C362.874 281.524 362.346 282.052 361.962 282.724C361.578 283.396 361.386 284.164 361.386 285.028L360.054 284.272C360.054 282.976 360.342 281.824 360.918 280.816C361.494 279.808 362.298 279.016 363.33 278.44C364.362 277.84 365.526 277.54 366.822 277.54C368.118 277.54 369.258 277.864 370.242 278.512C371.25 279.16 372.042 280.012 372.618 281.068C373.194 282.1 373.482 283.204 373.482 284.38V295H370.242ZM358.146 295V277.9H361.386V295H358.146ZM389.964 295V285.028C389.964 283.732 389.556 282.664 388.74 281.824C387.924 280.984 386.868 280.564 385.572 280.564C384.708 280.564 383.94 280.756 383.268 281.14C382.596 281.524 382.068 282.052 381.684 282.724C381.3 283.396 381.108 284.164 381.108 285.028L379.776 284.272C379.776 282.976 380.064 281.824 380.64 280.816C381.216 279.808 382.02 279.016 383.052 278.44C384.084 277.84 385.248 277.54 386.544 277.54C387.84 277.54 388.98 277.864 389.964 278.512C390.972 279.16 391.764 280.012 392.34 281.068C392.916 282.1 393.204 283.204 393.204 284.38V295H389.964ZM377.868 295V277.9H381.108V295H377.868ZM405.403 295.36C403.723 295.36 402.211 294.964 400.867 294.172C399.523 293.38 398.455 292.312 397.663 290.968C396.871 289.6 396.475 288.076 396.475 286.396C396.475 284.74 396.871 283.252 397.663 281.932C398.455 280.588 399.523 279.52 400.867 278.728C402.211 277.936 403.723 277.54 405.403 277.54C407.059 277.54 408.559 277.936 409.903 278.728C411.271 279.496 412.351 280.552 413.143 281.896C413.935 283.24 414.331 284.74 414.331 286.396C414.331 288.076 413.935 289.6 413.143 290.968C412.351 292.312 411.271 293.38 409.903 294.172C408.559 294.964 407.059 295.36 405.403 295.36ZM405.403 292.228C406.483 292.228 407.443 291.976 408.283 291.472C409.123 290.968 409.783 290.284 410.263 289.42C410.743 288.532 410.983 287.524 410.983 286.396C410.983 285.292 410.731 284.308 410.227 283.444C409.747 282.58 409.087 281.908 408.247 281.428C407.431 280.924 406.483 280.672 405.403 280.672C404.323 280.672 403.363 280.924 402.523 281.428C401.683 281.908 401.023 282.58 400.543 283.444C400.063 284.308 399.823 285.292 399.823 286.396C399.823 287.524 400.063 288.532 400.543 289.42C401.023 290.284 401.683 290.968 402.523 291.472C403.363 291.976 404.323 292.228 405.403 292.228ZM423.182 295L415.334 277.9H418.934L425.234 292.336H423.146L429.482 277.9H432.938L425.09 295H423.182ZM442.304 295.36C440.744 295.36 439.328 294.976 438.056 294.208C436.784 293.416 435.776 292.348 435.032 291.004C434.312 289.66 433.952 288.148 433.952 286.468C433.952 284.788 434.312 283.276 435.032 281.932C435.776 280.588 436.772 279.52 438.02 278.728C439.292 277.936 440.72 277.54 442.304 277.54C443.6 277.54 444.752 277.816 445.76 278.368C446.792 278.896 447.62 279.64 448.244 280.6C448.868 281.536 449.216 282.628 449.288 283.876V289.024C449.216 290.248 448.868 291.34 448.244 292.3C447.644 293.26 446.828 294.016 445.796 294.568C444.788 295.096 443.624 295.36 442.304 295.36ZM442.844 292.3C444.452 292.3 445.748 291.76 446.732 290.68C447.716 289.576 448.208 288.172 448.208 286.468C448.208 285.292 447.98 284.272 447.524 283.408C447.092 282.52 446.468 281.836 445.652 281.356C444.836 280.852 443.888 280.6 442.808 280.6C441.728 280.6 440.768 280.852 439.928 281.356C439.112 281.86 438.464 282.556 437.984 283.444C437.528 284.308 437.3 285.304 437.3 286.432C437.3 287.584 437.528 288.604 437.984 289.492C438.464 290.356 439.124 291.04 439.964 291.544C440.804 292.048 441.764 292.3 442.844 292.3ZM447.992 295V290.392L448.604 286.216L447.992 282.076V277.9H451.268V295H447.992ZM458.543 295V270.736H461.783V295H458.543ZM454.331 280.852V277.9H465.995V280.852H454.331ZM476.562 295.36C474.858 295.36 473.322 294.976 471.954 294.208C470.586 293.416 469.506 292.348 468.714 291.004C467.922 289.66 467.526 288.136 467.526 286.432C467.526 284.752 467.91 283.24 468.678 281.896C469.47 280.552 470.526 279.496 471.846 278.728C473.19 277.936 474.69 277.54 476.346 277.54C477.93 277.54 479.322 277.9 480.522 278.62C481.746 279.34 482.694 280.336 483.366 281.608C484.062 282.88 484.41 284.32 484.41 285.928C484.41 286.168 484.398 286.432 484.374 286.72C484.35 286.984 484.302 287.296 484.23 287.656H469.794V284.956H482.502L481.314 286C481.314 284.848 481.11 283.876 480.702 283.084C480.294 282.268 479.718 281.644 478.974 281.212C478.23 280.756 477.33 280.528 476.274 280.528C475.17 280.528 474.198 280.768 473.358 281.248C472.518 281.728 471.87 282.4 471.414 283.264C470.958 284.128 470.73 285.148 470.73 286.324C470.73 287.524 470.97 288.58 471.45 289.492C471.93 290.38 472.614 291.076 473.502 291.58C474.39 292.06 475.41 292.3 476.562 292.3C477.522 292.3 478.398 292.132 479.19 291.796C480.006 291.46 480.702 290.956 481.278 290.284L483.366 292.408C482.55 293.368 481.542 294.1 480.342 294.604C479.166 295.108 477.906 295.36 476.562 295.36ZM490.786 295.36C490.114 295.36 489.55 295.132 489.094 294.676C488.662 294.196 488.446 293.632 488.446 292.984C488.446 292.312 488.662 291.76 489.094 291.328C489.55 290.872 490.114 290.644 490.786 290.644C491.458 290.644 492.01 290.872 492.442 291.328C492.898 291.76 493.126 292.312 493.126 292.984C493.126 293.632 492.898 294.196 492.442 294.676C492.01 295.132 491.458 295.36 490.786 295.36ZM506.448 295V270.016H509.832V295H506.448ZM517.781 295V270.736H521.021V295H517.781ZM513.569 280.852V277.9H525.233V280.852H513.569ZM535.8 295.36C534.096 295.36 532.56 294.976 531.192 294.208C529.824 293.416 528.744 292.348 527.952 291.004C527.16 289.66 526.764 288.136 526.764 286.432C526.764 284.752 527.148 283.24 527.916 281.896C528.708 280.552 529.764 279.496 531.084 278.728C532.428 277.936 533.928 277.54 535.584 277.54C537.168 277.54 538.56 277.9 539.76 278.62C540.984 279.34 541.932 280.336 542.604 281.608C543.3 282.88 543.648 284.32 543.648 285.928C543.648 286.168 543.636 286.432 543.612 286.72C543.588 286.984 543.54 287.296 543.468 287.656H529.032V284.956H541.74L540.552 286C540.552 284.848 540.348 283.876 539.94 283.084C539.532 282.268 538.956 281.644 538.212 281.212C537.468 280.756 536.568 280.528 535.512 280.528C534.408 280.528 533.436 280.768 532.596 281.248C531.756 281.728 531.108 282.4 530.652 283.264C530.196 284.128 529.968 285.148 529.968 286.324C529.968 287.524 530.208 288.58 530.688 289.492C531.168 290.38 531.852 291.076 532.74 291.58C533.628 292.06 534.648 292.3 535.8 292.3C536.76 292.3 537.636 292.132 538.428 291.796C539.244 291.46 539.94 290.956 540.516 290.284L542.604 292.408C541.788 293.368 540.78 294.1 539.58 294.604C538.404 295.108 537.144 295.36 535.8 295.36ZM547.181 295V277.9H550.421V295H547.181ZM550.421 285.244L549.197 284.704C549.197 282.52 549.701 280.78 550.709 279.484C551.717 278.188 553.169 277.54 555.065 277.54C555.929 277.54 556.709 277.696 557.405 278.008C558.101 278.296 558.749 278.788 559.349 279.484L557.225 281.68C556.865 281.296 556.469 281.02 556.037 280.852C555.605 280.684 555.101 280.6 554.525 280.6C553.325 280.6 552.341 280.984 551.573 281.752C550.805 282.52 550.421 283.684 550.421 285.244ZM568.339 295.36C566.779 295.36 565.363 294.976 564.091 294.208C562.819 293.416 561.811 292.348 561.067 291.004C560.347 289.66 559.987 288.148 559.987 286.468C559.987 284.788 560.347 283.276 561.067 281.932C561.811 280.588 562.807 279.52 564.055 278.728C565.327 277.936 566.755 277.54 568.339 277.54C569.635 277.54 570.787 277.816 571.795 278.368C572.827 278.896 573.655 279.64 574.279 280.6C574.903 281.536 575.251 282.628 575.323 283.876V289.024C575.251 290.248 574.903 291.34 574.279 292.3C573.679 293.26 572.863 294.016 571.831 294.568C570.823 295.096 569.659 295.36 568.339 295.36ZM568.879 292.3C570.487 292.3 571.783 291.76 572.767 290.68C573.751 289.576 574.243 288.172 574.243 286.468C574.243 285.292 574.015 284.272 573.559 283.408C573.127 282.52 572.503 281.836 571.687 281.356C570.871 280.852 569.923 280.6 568.843 280.6C567.763 280.6 566.803 280.852 565.963 281.356C565.147 281.86 564.499 282.556 564.019 283.444C563.563 284.308 563.335 285.304 563.335 286.432C563.335 287.584 563.563 288.604 564.019 289.492C564.499 290.356 565.159 291.04 565.999 291.544C566.839 292.048 567.799 292.3 568.879 292.3ZM574.027 295V290.392L574.639 286.216L574.027 282.076V277.9H577.303V295H574.027ZM584.578 295V270.736H587.818V295H584.578ZM580.366 280.852V277.9H592.03V280.852H580.366ZM602.597 295.36C600.893 295.36 599.357 294.976 597.989 294.208C596.621 293.416 595.541 292.348 594.749 291.004C593.957 289.66 593.561 288.136 593.561 286.432C593.561 284.752 593.945 283.24 594.713 281.896C595.505 280.552 596.561 279.496 597.881 278.728C599.225 277.936 600.725 277.54 602.381 277.54C603.965 277.54 605.357 277.9 606.557 278.62C607.781 279.34 608.729 280.336 609.401 281.608C610.097 282.88 610.445 284.32 610.445 285.928C610.445 286.168 610.433 286.432 610.409 286.72C610.385 286.984 610.337 287.296 610.265 287.656H595.829V284.956H608.537L607.349 286C607.349 284.848 607.145 283.876 606.737 283.084C606.329 282.268 605.753 281.644 605.009 281.212C604.265 280.756 603.365 280.528 602.309 280.528C601.205 280.528 600.233 280.768 599.393 281.248C598.553 281.728 597.905 282.4 597.449 283.264C596.993 284.128 596.765 285.148 596.765 286.324C596.765 287.524 597.005 288.58 597.485 289.492C597.965 290.38 598.649 291.076 599.537 291.58C600.425 292.06 601.445 292.3 602.597 292.3C603.557 292.3 604.433 292.132 605.225 291.796C606.041 291.46 606.737 290.956 607.313 290.284L609.401 292.408C608.585 293.368 607.577 294.1 606.377 294.604C605.201 295.108 603.941 295.36 602.597 295.36ZM616.822 295.36C616.15 295.36 615.586 295.132 615.13 294.676C614.698 294.196 614.482 293.632 614.482 292.984C614.482 292.312 614.698 291.76 615.13 291.328C615.586 290.872 616.15 290.644 616.822 290.644C617.494 290.644 618.046 290.872 618.478 291.328C618.934 291.76 619.162 292.312 619.162 292.984C619.162 293.632 618.934 294.196 618.478 294.676C618.046 295.132 617.494 295.36 616.822 295.36Z" fill="white"/>
</svg>
