<svg width="439" height="316" viewBox="0 0 439 316" fill="none" xmlns="http://www.w3.org/2000/svg">
<path d="M413.097 219.462C392.427 219.462 372.581 219.462 352.735 219.462C320.353 219.288 292.243 198.819 283.567 167.312C268.58 113.121 254.525 58.668 240.08 4.34577C239.711 2.99858 239.19 1.71658 238.626 0L144.212 0C150.957 25.6401 157.616 50.889 164.557 77.2244H108.164C112.502 94.6075 115.386 111.274 122.088 126.614C131.719 148.625 150.285 158.251 173.406 157.382C184.077 156.969 187.808 160.728 189.76 170.42C196.267 201.948 207.719 231.26 229.322 255.792C263.157 294.281 305.64 313.91 356.769 314.678C383.469 315.047 410.191 314.678 438.561 314.678L413.097 219.462Z" fill="white"/>
<path d="M408.072 199.645C399.136 166.211 390.311 133.22 381.543 100.449C372.543 66.8158 363.602 33.4135 354.662 0L259.985 0C267.358 28.1022 274.557 55.7269 281.865 83.3517C288.197 107.331 294.681 131.31 301.056 155.289C308.863 184.628 327.946 199.58 358.001 199.732C374.2 199.71 390.399 199.645 408.072 199.645Z" fill="white"/>
<rect y="112.162" width="91.9538" height="202.898" fill="white"/>
<rect x="0.218628" y="6.99634" width="91.9538" height="87.9558" fill="#037EFD"/>
</svg>
